<?xml version="1.0" encoding="utf-8"?>
<!-- Generator: Adobe Illustrator 16.0.0, SVG Export Plug-In . SVG Version: 6.00 Build 0)  -->
<!DOCTYPE svg PUBLIC "-//W3C//DTD SVG 1.1//EN" "http://www.w3.org/Graphics/SVG/1.1/DTD/svg11.dtd">
<svg version="1.1" id="Capa_1" xmlns="http://www.w3.org/2000/svg" xmlns:xlink="http://www.w3.org/1999/xlink" x="0px" y="0px"
	 width="512px" height="512px" viewBox="0 0 512 512" enable-background="new 0 0 512 512" xml:space="preserve">
<g>
	<g id="cloud-off">
		<linearGradient id="SVGID_1_" gradientUnits="userSpaceOnUse" x1="0" y1="256" x2="512" y2="256">
			<stop  offset="0" style="stop-color:#7474BF"/>
			<stop  offset="1" style="stop-color:#348AC7"/>
		</linearGradient>
		<path fill="url(#SVGID_1_)" d="M413.867,192C398.933,119.467,334.933,64,256,64c-32,0-61.867,8.533-85.333,25.6l32,32
			C217.6,110.934,236.8,106.667,256,106.667c64,0,117.334,53.333,117.334,117.333v10.667h32c36.266,0,63.999,27.734,63.999,64
			c0,23.467-12.8,44.8-34.133,55.467l32,32c27.733-19.2,44.8-51.2,44.8-87.467C512,243.2,467.2,196.267,413.867,192z M64,91.733
			l59.733,57.6C55.467,153.6,0,209.067,0,277.334c0,70.399,57.6,127.999,128,127.999h249.6L420.267,448L448,420.267L91.733,64
			L64,91.733z M164.267,192l170.667,170.667H128c-46.933,0-85.333-38.4-85.333-85.333C42.667,230.4,81.067,192,128,192H164.267z"/>
	</g>
</g>
</svg>
